<svg width="40.000000" height="40.000000" viewBox="0 0 40 40" fill="none" xmlns="http://www.w3.org/2000/svg" xmlns:xlink="http://www.w3.org/1999/xlink">
	<desc>
			Created with Pixso.
	</desc>
	<defs>
		<clipPath id="clip2_28">
			<rect id="工具" width="40.000000" height="40.000000" fill="white"/>
		</clipPath>
	</defs>
	<rect width="40.000000" height="40.000000" fill="#FFFFFF"/>
	<g clip-path="url(#clip2_28)">
		<path id="path" d="M36.7596 32.4306L29.6481 25.318L30.597 24.3682L29.6487 23.4201L26.8051 26.265L22.0625 21.5223L27.7605 15.8229C28.5257 16.0953 29.3144 16.231 30.1267 16.2299C32.005 16.2299 33.7709 15.4982 35.0993 14.1712C37.1489 12.1197 37.7304 9.07182 36.5804 6.40556L36.1896 5.49763L33.1335 8.55418L30.6728 8.58778L30.7056 6.2406L33.8206 3.12571L32.9154 2.7334C32.021 2.34561 31.0864 2.15248 30.1116 2.154C28.2328 2.154 26.4673 2.8857 25.1411 4.21349C23.1966 6.15691 22.5718 8.99618 23.4917 11.5592L17.7957 17.2561L9.735 9.19535L10.6838 8.24718L5.47 3.03256L2.62291 5.87585L7.83875 11.0919L8.78617 10.1437L16.8469 18.2042L11.1511 23.9011C10.3834 23.6265 9.59198 23.4899 8.77671 23.4913C6.89877 23.4913 5.13267 24.2238 3.80567 25.5514C1.75192 27.604 1.1712 30.6568 2.32721 33.3262L2.71946 34.2316L5.83468 31.1161L8.18091 31.0845L8.14732 33.5455L5.09103 36.6023L5.99902 36.9924C6.89027 37.3778 7.8214 37.5698 8.7924 37.5684C10.6712 37.5684 12.4359 36.8375 13.7628 35.5099C15.7046 33.5677 16.3295 30.7318 15.4155 28.1726L21.1147 22.4727L25.857 27.214L23.0116 30.0599L23.9598 31.008L24.9078 30.0599L32.0187 37.1716C32.6515 37.8053 33.4943 38.154 34.3895 38.154C35.2846 38.154 36.1268 37.8055 36.7602 37.1716C38.0671 35.8647 38.0663 33.7375 36.7596 32.4306Z" fill-rule="nonzero" fill="#515151"/>
		<path id="path" d="M4.5006 5.854L5.444 4.9126L8.7426 8.2114L7.8 9.154L4.5006 5.854Z" fill-rule="nonzero" fill="#D81E06"/>
		<path id="path" d="M13.9406 28.1212C14.8654 30.2672 14.3966 32.7212 12.7466 34.3712C11.6786 35.4394 10.2592 36.0272 8.7472 36.0272C8.3132 36.0272 7.8858 35.9792 7.4698 35.8824L9.4312 33.9204L9.4904 29.5624L5.2464 29.6196L3.222 31.6446C2.7766 29.7568 3.3234 27.7648 4.7326 26.3568C5.8014 25.2874 7.2212 24.6994 8.7326 24.6994C9.516 24.6994 10.2746 24.8568 10.9906 25.167L11.4066 25.3468L24.936 11.818L24.756 11.402C23.8256 9.2526 24.2934 6.7974 25.9462 5.1446C27.0142 4.076 28.434 3.488 29.9454 3.488C30.3832 3.488 30.8142 3.5374 31.234 3.6346L29.2106 5.658L29.152 9.9026L33.51 9.8434L35.4734 7.8808C35.9132 9.7654 35.366 11.7542 33.9612 13.1596C32.8918 14.2276 31.4718 14.8156 29.9598 14.8156C29.1792 14.8156 28.4218 14.6596 27.7078 14.3522L27.2924 14.173L13.7612 27.7062L13.9406 28.1212Z" fill-rule="nonzero" fill="#FFFFFF"/>
		<path id="path" d="M35.6132 36.0234C35.2231 36.4153 34.7515 36.6106 34.1986 36.6094C33.6456 36.6107 33.1741 36.4154 32.784 36.0234L25.7132 28.9532L28.5414 26.1252L35.6122 33.1952C36.3926 33.9754 36.3926 35.2434 35.6132 36.0234Z" fill-rule="nonzero" fill="#D81E06"/>
		<path id="FAST" d="M14.8899 33.2795Q14.8398 33.2795 14.8093 33.3149Q14.78 33.3503 14.78 33.3943L14.78 34.8945L17.1494 34.8945L17.1494 35.1753L14.78 35.1753L14.78 37.0002L14 37.0002L14 33.3003Q14 33.1697 14.0891 33.0854Q14.1794 33 14.3101 33L17.2251 33L17.2251 33.2795L14.8899 33.2795ZM20.9895 35.8845L19.2695 35.8845L18.8594 37.0002L18.0195 37.0002L19.4148 33.2393Q19.4551 33.1392 19.5466 33.0696Q19.6394 33 19.7505 33L20.1094 33Q20.2302 33 20.3218 33.0696Q20.4146 33.1392 20.4548 33.2393L21.7805 37.0002L21.3801 37.0002L20.9895 35.8845ZM20.8894 35.605L20.1948 33.6104Q20.1802 33.5847 20.1497 33.5823Q20.1204 33.5798 20.1045 33.6104L19.3696 35.605L20.8894 35.605ZM22.9851 33.2747Q22.9448 33.2747 22.9094 33.3052Q22.8752 33.3345 22.8752 33.3845L22.8752 34.6895Q22.8752 34.7346 22.9094 34.77Q22.9448 34.8042 22.9851 34.8042L25.1445 34.8042Q25.2751 34.8042 25.3667 34.8921Q25.4595 34.98 25.4595 35.1094L25.4595 36.6951Q25.4595 36.8245 25.3667 36.9124Q25.2751 37.0002 25.1445 37.0002L22.2454 37.0002L22.0952 36.7292L24.5745 36.7292Q24.6245 36.7292 24.6599 36.6963Q24.6953 36.6646 24.6953 36.6194L24.6953 35.1802Q24.6953 35.1399 24.6599 35.1057Q24.6245 35.0703 24.5745 35.0703L22.415 35.0703Q22.2905 35.0703 22.2002 34.9824Q22.1099 34.8945 22.1099 34.7651L22.1099 33.3149Q22.1099 33.1843 22.2002 33.0928Q22.2905 33 22.415 33L25.5046 33L25.5046 33.2747L22.9851 33.2747ZM29.6755 33.2795L28.2302 33.2795L28.2302 37.0002L27.4404 37.0002L27.4404 33.2795L25.9951 33.2795L25.9951 33.0049L29.6755 33L29.6755 33.2795Z" fill-rule="evenodd" fill="#515151"/>
	</g>
</svg>
